<?xml version="1.0" encoding="utf-8"?>
<!-- Generator: Adobe Illustrator 17.0.0, SVG Export Plug-In . SVG Version: 6.00 Build 0)  -->
<!DOCTYPE svg PUBLIC "-//W3C//DTD SVG 1.1//EN" "http://www.w3.org/Graphics/SVG/1.1/DTD/svg11.dtd">
<svg version="1.1" id="Layer_1" xmlns="http://www.w3.org/2000/svg" xmlns:xlink="http://www.w3.org/1999/xlink" x="0px" y="0px"
	 width="1px" height="1px" viewBox="0 0 1 1" enable-background="new 0 0 1 1" xml:space="preserve">
<path opacity="0.4" d="M-4.215,3.992h10.61c1.011,0,1.684-0.674,1.684-1.684v-9.937c0-3.874-3.2-7.074-6.905-7.074
	s-7.074,3.2-7.074,7.074v9.937C-5.899,3.15-5.057,3.992-4.215,3.992z M-2.53-7.629c0-2.021,1.684-3.705,3.537-3.705
	S4.543-9.65,4.543-7.629v8.253H-2.53V-7.629z"/>
<path opacity="0.4" fill="#4688C7" d="M63.49,30.94h-2.863v-52.042c0-1.011-0.674-1.684-1.684-1.684H18.69v-8.421
	c0-1.011-0.674-1.684-1.684-1.684h-32c-1.011,0-1.684,0.674-1.684,1.684v8.421h-40.084c-1.011,0-1.684,0.674-1.684,1.684V30.94
	h-3.368c-1.011,0-1.684,0.674-1.684,1.684s0.674,1.684,1.684,1.684H63.659c1.011,0,1.684-0.674,1.684-1.684
	S64.501,30.94,63.49,30.94z M-55.078-11.671h38.568v42.61h-38.568V-11.671z M4.375,30.94h-6.568v-8.758h6.568V30.94z M18.69,30.94
	v-42.61h38.568v42.61H18.69z M57.259-19.418v4.379H18.69v-4.379H57.259z M-13.309-29.523h28.631V30.94H7.743V20.498
	c0-1.011-0.674-1.684-1.684-1.684h-9.937c-1.011,0-1.684,0.674-1.684,1.684V30.94h-7.747V-29.523z M-55.078-19.418h38.568v4.379
	h-38.568V-19.418z"/>
</svg>
