<?xml version="1.0" encoding="utf-8"?>
<!-- Generator: Adobe Illustrator 17.0.0, SVG Export Plug-In . SVG Version: 6.00 Build 0)  -->
<!DOCTYPE svg PUBLIC "-//W3C//DTD SVG 1.1//EN" "http://www.w3.org/Graphics/SVG/1.1/DTD/svg11.dtd">
<svg version="1.1" id="Layer_1" xmlns="http://www.w3.org/2000/svg" xmlns:xlink="http://www.w3.org/1999/xlink" x="0px" y="0px"
	 width="1px" height="1px" viewBox="0 0 1 1" enable-background="new 0 0 1 1" xml:space="preserve">
<path opacity="0.4" fill="#4688C7" d="M35.073-8.881c-0.388-0.538-1.009-0.855-1.669-0.855H18.897
	c-1.028-9.233-8.87-16.441-18.374-16.441c-9.503,0-17.347,7.207-18.374,16.441h-8.342v-13.535l3.508-3.508
	c0.804-0.801,0.804-2.102,0-2.906s-2.102-0.804-2.906,0l-4.11,4.11c-0.386,0.384-0.602,0.906-0.602,1.453v14.386h-2.055
	c-0.66,0-1.28,0.316-1.667,0.855c-0.386,0.536-0.491,1.225-0.284,1.852l4.11,12.33c0.282,0.838,1.065,1.404,1.95,1.404h10.275
	v43.157c0,1.136,0.921,2.055,2.055,2.055h32.881c1.136,0,2.055-0.919,2.055-2.055V6.704h10.275c0.886,0,1.669-0.565,1.948-1.406
	l4.11-12.33C35.564-7.659,35.457-8.347,35.073-8.881z M0.523-22.067c7.234,0,13.22,5.37,14.221,12.33h-28.442
	C-12.698-16.697-6.711-22.067,0.523-22.067z M14.908,47.806h-28.771V6.704h28.771V47.806z M27.812,2.594h-54.579l-2.739-8.22h60.06
	L27.812,2.594z"/>
<path opacity="0.4" fill="none" stroke="#000000" stroke-width="2.0437" stroke-miterlimit="10" d="M0.523-30.289
	c5.665,0,10.273-4.609,10.273-10.273S6.187-50.836,0.523-50.836S-9.75-46.227-9.75-40.563S-5.142-30.289,0.523-30.289z"/>
</svg>
