<?xml version="1.0" encoding="utf-8"?>
<!-- Generator: Adobe Illustrator 17.0.0, SVG Export Plug-In . SVG Version: 6.00 Build 0)  -->
<!DOCTYPE svg PUBLIC "-//W3C//DTD SVG 1.1//EN" "http://www.w3.org/Graphics/SVG/1.1/DTD/svg11.dtd">
<svg version="1.1" id="Layer_1" xmlns="http://www.w3.org/2000/svg" xmlns:xlink="http://www.w3.org/1999/xlink" x="0px" y="0px"
	 width="1px" height="1px" viewBox="0 0 1 1" enable-background="new 0 0 1 1" xml:space="preserve">
<path opacity="0.4" fill="none" stroke="#4688C7" stroke-width="1.6225" stroke-miterlimit="10" d="M36.39-47.64h-70.055
	c-1.091,0-1.979,0.885-1.979,1.979v91.98c0,1.093,0.885,1.977,1.979,1.977h70.057c1.089,0,1.977-0.883,1.977-1.977v-91.98
	C38.368-46.754,37.479-47.64,36.39-47.64z"/>
<path opacity="0.4" fill="none" stroke="#000000" stroke-width="2.0846" stroke-miterlimit="10" d="M-24.417-30.543
	c0-1.093,0.885-1.979,1.979-1.979h18.526c1.091,0,1.979,0.883,1.979,1.979V-5.85c0,1.093-0.885,1.979-1.979,1.979h-18.526
	c-1.091,0-1.979-0.885-1.979-1.979V-30.543z"/>
<path opacity="0.4" fill="none" stroke="#4688C7" stroke-width="1.6225" stroke-miterlimit="10" d="M25.159,33.182h-47.598
	c-1.091,0-1.979-0.885-1.979-1.979c0-1.093,0.885-1.977,1.979-1.977h47.598c1.089,0,1.977,0.883,1.977,1.977
	C27.136,32.297,26.248,33.182,25.159,33.182z"/>
<path opacity="0.4" fill="none" stroke="#4688C7" stroke-width="1.6225" stroke-miterlimit="10" d="M25.159,20.836h-47.598
	c-1.091,0-1.979-0.885-1.979-1.979s0.885-1.977,1.979-1.977h47.598c1.089,0,1.977,0.883,1.977,1.977S26.248,20.836,25.159,20.836z"
	/>
<path opacity="0.4" fill="none" stroke="#4688C7" stroke-width="1.6225" stroke-miterlimit="10" d="M25.159,8.479h-47.598
	c-1.091,0-1.979-0.883-1.979-1.977s0.885-1.977,1.979-1.977h47.598c1.089,0,1.977,0.883,1.977,1.977S26.248,8.479,25.159,8.479z"/>
<path opacity="0.4" fill="none" stroke="#4688C7" stroke-width="1.6225" stroke-miterlimit="10" d="M25.159-3.867H8.952
	c-1.093,0-1.977-0.885-1.977-1.979s0.883-1.979,1.977-1.979h16.207c1.089,0,1.977,0.885,1.977,1.979S26.248-3.867,25.159-3.867z"/>
<path opacity="0.4" fill="none" stroke="#4688C7" stroke-width="1.6225" stroke-miterlimit="10" d="M25.159-16.219H8.952
	c-1.093,0-1.977-0.885-1.977-1.979c0-1.093,0.883-1.979,1.977-1.979h16.207c1.089,0,1.977,0.883,1.977,1.979
	C27.136-17.104,26.248-16.219,25.159-16.219z"/>
<path opacity="0.4" fill="none" stroke="#4688C7" stroke-width="1.6225" stroke-miterlimit="10" d="M25.159-28.566H8.952
	c-1.093,0-1.977-0.883-1.977-1.977s0.883-1.979,1.977-1.979h16.207c1.089,0,1.977,0.883,1.977,1.979
	C27.136-29.45,26.248-28.566,25.159-28.566z"/>
</svg>
