<?xml version="1.0" encoding="utf-8"?>
<!-- Generator: Adobe Illustrator 17.0.0, SVG Export Plug-In . SVG Version: 6.00 Build 0)  -->
<!DOCTYPE svg PUBLIC "-//W3C//DTD SVG 1.1//EN" "http://www.w3.org/Graphics/SVG/1.1/DTD/svg11.dtd">
<svg version="1.1" id="Layer_1" xmlns="http://www.w3.org/2000/svg" xmlns:xlink="http://www.w3.org/1999/xlink" x="0px" y="0px"
	 width="1px" height="1px" viewBox="0 0 1 1" enable-background="new 0 0 1 1" xml:space="preserve">
<g>
	<path fill="#4688C7" d="M-30.763,20.15c-0.945,0-1.889-0.638-1.889-1.595v-40.186c0-0.638,0.567-1.276,1.323-1.435l9.824-2.392
		v-9.249c0-0.478,0.378-0.957,0.756-1.276c0.567-0.319,1.134-0.319,1.7-0.159l18.704,6.219c0.756,0.319,1.134,0.797,1.134,1.595
		c0,0.638-0.567,1.276-1.323,1.435l-17.004,3.987V2.768c0,0.797-0.756,1.595-1.889,1.595c-0.945,0-1.889-0.638-1.889-1.595v-24.877
		l-7.557,1.754v38.91C-28.874,19.512-29.63,20.15-30.763,20.15z M-17.538-32.475v6.219l10.769-2.551L-17.538-32.475z"/>
</g>
<g>
	<path fill="#4688C7" d="M20.625,22.86c-0.945,0-1.889-0.638-1.889-1.595v-35.88L-2.235-27.212
		c-0.567-0.319-0.945-0.957-0.756-1.595c0.189-0.638,0.756-1.116,1.511-1.116l28.15-3.189c0.567,0,1.134,0,1.511,0.319
		s0.567,0.797,0.567,1.116V5.319c0,0.797-0.756,1.595-1.889,1.595c-0.945,0-1.889-0.638-1.889-1.595v-35.242l-21.16,2.392
		l17.948,10.844c0.567,0.319,0.756,0.797,0.756,1.276v36.677C22.515,22.223,21.759,22.86,20.625,22.86z"/>
</g>
<g opacity="0.4">
	<path d="M-1.101,12.176c-0.945,0-1.889-0.638-1.889-1.595v-45.289c0-0.797,0.756-1.595,1.889-1.595
		c0.945,0,1.889,0.638,1.889,1.595v45.289C0.788,11.538,0.032,12.176-1.101,12.176z"/>
</g>
<g>
	<path fill="#4688C7" d="M-0.346,31.153c-23.427,0-41.753-6.857-41.753-15.628S-23.773-0.103-0.346-0.103
		s41.753,6.857,41.753,15.628S23.081,31.153-0.346,31.153z M-0.346,3.246c-22.86,0-38.164,6.379-38.164,12.438
		s15.303,12.438,38.164,12.438s38.164-6.379,38.164-12.438S22.515,3.246-0.346,3.246z"/>
</g>
<g>
	<path fill="#4688C7" d="M-0.346,38.648c-24.939,0-44.398-7.335-44.398-16.903c0-2.233,0.945-4.306,3.023-6.219l2.834,2.073
		c-1.511,1.435-2.078,2.87-2.078,4.306c0,6.698,16.437,13.714,40.62,13.714c24.372,0,40.62-7.176,40.62-13.714
		c0-1.435-0.756-2.87-2.267-4.306l2.834-2.073c2.078,2.073,3.212,4.146,3.212,6.379C44.052,31.312,24.593,38.648-0.346,38.648z"/>
</g>
</svg>
