<?xml version="1.0" encoding="utf-8"?>
<!-- Generator: Adobe Illustrator 17.0.0, SVG Export Plug-In . SVG Version: 6.00 Build 0)  -->
<!DOCTYPE svg PUBLIC "-//W3C//DTD SVG 1.1//EN" "http://www.w3.org/Graphics/SVG/1.1/DTD/svg11.dtd">
<svg version="1.1" id="Layer_1" xmlns="http://www.w3.org/2000/svg" xmlns:xlink="http://www.w3.org/1999/xlink" x="0px" y="0px"
	 width="1px" height="1px" viewBox="0 0 1 1" enable-background="new 0 0 1 1" xml:space="preserve">
<path opacity="0.4" fill="none" stroke="#4688C7" stroke-width="1.3507" stroke-miterlimit="10" d="M-35.249,29.057
	c-0.177,1.679,0.53,3.358,1.944,4.418c2.563,1.767,7.511,4.595,15.729,6.362V22.253v-2.032V8.999
	C-24.822,12.268-33.923,18.454-35.249,29.057z"/>
<path opacity="0.4" d="M1.068,13.152L-8.21,5.906c-0.707,0.177-2.651,0.619-5.213,1.502v12.813h29.072V7.408
	c-2.563-0.884-4.595-1.414-5.302-1.591L1.068,13.152z"/>
<path opacity="0.4" fill="none" stroke="#4688C7" stroke-width="1.3507" stroke-miterlimit="10" d="M37.386,29.057
	c-1.325-10.604-10.25-16.701-17.584-19.97v11.134v2.563v17.054c8.218-1.856,13.166-4.595,15.64-6.362
	C36.856,32.415,37.562,30.736,37.386,29.057z"/>
<path opacity="0.4" fill="none" stroke="#4688C7" stroke-width="1.3507" stroke-miterlimit="10" d="M0.892,5.199
	c9.985,0,18.114-8.483,18.203-18.91h-36.406C-17.223-3.195-9.093,5.199,0.892,5.199z"/>
<path opacity="0.4" fill="none" stroke="#4688C7" stroke-width="1.3507" stroke-miterlimit="10" d="M-21.111-16.98h1.944l0,0H20.42
	l0,0h1.944c1.237,0,2.209-0.972,2.209-2.209c0-1.237-0.972-2.209-2.209-2.209h-1.767c-0.442-7.246-4.948-13.431-11.045-14.757v5.92
	c0,0.795-0.619,1.414-1.414,1.414c-0.795,0-1.414-0.619-1.414-1.414v-7.246c-0.53-0.884-2.121-2.209-6.097-2.209
	c-3.711,0-5.302,1.149-6.009,2.032v7.511c0,0.795-0.619,1.414-1.414,1.414s-1.414-0.619-1.414-1.414v-6.097
	c-6.097,1.237-10.692,7.511-11.222,14.845h-1.767c-1.237,0-2.209,0.972-2.209,2.209C-23.408-17.952-22.26-16.98-21.111-16.98z"/>
</svg>
