<?xml version="1.0" encoding="utf-8"?>
<!-- Generator: Adobe Illustrator 17.0.0, SVG Export Plug-In . SVG Version: 6.00 Build 0)  -->
<!DOCTYPE svg PUBLIC "-//W3C//DTD SVG 1.1//EN" "http://www.w3.org/Graphics/SVG/1.1/DTD/svg11.dtd">
<svg version="1.1" id="Layer_1" xmlns="http://www.w3.org/2000/svg" xmlns:xlink="http://www.w3.org/1999/xlink" x="0px" y="0px"
	 width="1px" height="1px" viewBox="0 0 1 1" enable-background="new 0 0 1 1" xml:space="preserve">
<path opacity="0.4" fill="#4688C7" d="M24.744,42.644h-47.209c-6.646,0-12.034-5.388-12.034-12.034l0,0v-68.499h71.276V30.61
	C36.778,37.256,31.39,42.644,24.744,42.644L24.744,42.644z M-32.647-36.038V30.61c0,5.624,4.559,10.182,10.182,10.182h47.209
	c5.624,0,10.182-4.559,10.182-10.182v-66.648H-32.647z"/>
<path opacity="0.4" fill="#4688C7" d="M24.744-5.435h-47.209c-6.646,0-12.034-5.388-12.034-12.034h1.851
	c0,5.624,4.559,10.182,10.182,10.182h47.209c5.624,0,10.182-4.559,10.182-10.182h1.851C36.778-10.823,31.39-5.435,24.744-5.435z"/>
<path opacity="0.4" d="M-24.585,3.766v22.216c0,6.646,5.388,12.034,12.034,12.034H14.83c6.642-0.005,12.024-5.391,12.024-12.034
	V3.766H-24.585z M25.012,25.982c0,5.624-4.559,10.182-10.182,10.182h-27.372c-5.624,0-10.182-4.559-10.182-10.182v-4.7
	c2.131,3.376,5.885,5.626,10.173,5.626H-2.1v3.24c0,1.789,1.45,3.24,3.24,3.24c1.79,0,3.24-1.451,3.24-3.24v-3.24H14.83
	c4.297-0.003,8.056-2.266,10.182-5.656V25.982z M2.528,25.056h-2.777v-4.166c0-0.767,0.622-1.388,1.388-1.388
	c0.767,0,1.389,0.622,1.389,1.388V25.056z M2.528,26.908v3.24c0,0.767-0.622,1.389-1.389,1.389c-0.767,0-1.388-0.622-1.388-1.389
	v-3.24H2.528z M25.012,14.874h-0.009c0,5.624-4.559,10.182-10.182,10.182H4.379v-4.166c0-1.789-1.45-3.24-3.24-3.24
	c-1.789,0-3.24,1.451-3.24,3.24v4.166h-10.451c-5.562,0-10.074-4.461-10.173-9.999v-9.44h47.737V14.874z"/>
<path opacity="0.4" fill="#4688C7" d="M-35.887,33.387c-1.789,0-3.24-1.451-3.24-3.24l0,0V7.006c0-1.789,1.451-3.24,3.24-3.24
	c1.789,0,3.24,1.451,3.24,3.24v23.142C-32.647,31.937-34.098,33.387-35.887,33.387L-35.887,33.387z M-35.887,5.617
	c-0.767,0-1.389,0.622-1.389,1.389v23.142c0,0.767,0.622,1.389,1.389,1.389c0.767,0,1.389-0.622,1.389-1.389V7.006
	C-34.499,6.239-35.12,5.617-35.887,5.617z"/>
<path opacity="0.4" fill="#4688C7" d="M38.166,33.387c-1.789,0-3.24-1.451-3.24-3.24l0,0V7.006c0-1.789,1.451-3.24,3.24-3.24
	s3.24,1.451,3.24,3.24v23.142C41.406,31.937,39.955,33.387,38.166,33.387L38.166,33.387z M38.166,5.617
	c-0.767,0-1.389,0.622-1.389,1.389v23.142c0,0.767,0.622,1.389,1.389,1.389c0.767,0,1.389-0.622,1.389-1.389V7.006
	C39.555,6.239,38.933,5.617,38.166,5.617z"/>
<rect x="-38.201" y="22.279" opacity="0.4" fill="#4688C7" width="4.628" height="1.851"/>
<rect x="35.852" y="22.279" opacity="0.4" fill="#4688C7" width="4.628" height="1.851"/>
<path opacity="0.4" fill="#4688C7" d="M-9.506-36.038h-15.736v-6.48h15.736V-36.038z M-23.391-37.889h12.034v-2.777h-12.034V-37.889
	z"/>
<path opacity="0.4" fill="#4688C7" d="M27.521-36.038H11.785v-6.48h15.736V-36.038z M13.636-37.889H25.67v-2.777H13.636V-37.889z"/>
</svg>
