<?xml version="1.0" encoding="utf-8"?>
<!-- Generator: Adobe Illustrator 17.0.0, SVG Export Plug-In . SVG Version: 6.00 Build 0)  -->
<!DOCTYPE svg PUBLIC "-//W3C//DTD SVG 1.1//EN" "http://www.w3.org/Graphics/SVG/1.1/DTD/svg11.dtd">
<svg version="1.1" id="Layer_1" xmlns="http://www.w3.org/2000/svg" xmlns:xlink="http://www.w3.org/1999/xlink" x="0px" y="0px"
	 width="1px" height="1px" viewBox="0 0 1 1" enable-background="new 0 0 1 1" xml:space="preserve">
<g opacity="0.4">
	<path fill="none" stroke="#4688C7" stroke-width="0.9523" stroke-miterlimit="10" d="M0.483,7.361
		C0.539,1.53,0.269-6.384-1.138-13.54c1.27,2.874,2.568,6.485,3.812,11.006c0.296-0.245,0.6-0.459,0.903-0.656
		c1.205-0.768,2.527-1.313,3.736-1.681C7.514-4.929,7.712-4.984,7.91-5.034c-3.1-10.885-6.588-17.027-9.786-20.609
		c-1.735-1.963-3.427-3.116-4.848-3.781c-0.018,0.016-0.034,0.033-0.052,0.049c-1.831,1.62-4.185,2.512-6.627,2.512
		c-2.867,0-5.602-1.23-7.499-3.378c-0.198-0.223-0.383-0.455-0.559-0.693c-3.146,0.708-5.805,1.937-7.921,3.594
		c-3.464,2.693-5.371,6.584-5.355,10.562c-0.002,2.4,0.673,4.796,1.947,6.987c0.601,1.033,1.333,2.021,2.194,2.941
		c2.687,2.883,6.581,5.143,11.541,6.392c0.234,0.059,0.469,0.087,0.7,0.087c1.279,0,2.444-0.864,2.771-2.161
		c0.386-1.532-0.544-3.086-2.074-3.472c-4.071-1.025-6.938-2.795-8.754-4.745c-1.523-1.641-2.319-3.391-2.54-5.066
		c-0.042-0.324-0.066-0.646-0.066-0.963c0.016-2.203,0.955-4.305,3.164-6.061c0.033-0.026,0.07-0.051,0.104-0.077
		c-0.984,2.13-1.76,4.546-2.371,7.107c0.232,1.567,1.013,3.109,2.308,4.504c1.333,1.432,3.866,3.377,8.354,4.508
		c0.952,0.239,1.754,0.835,2.258,1.679s0.65,1.832,0.409,2.784c-0.413,1.637-1.878,2.78-3.563,2.78
		c-0.304,0-0.607-0.038-0.902-0.112c-4.177-1.053-7.778-2.864-10.536-5.277c-0.388,4.447-0.476,8.759-0.442,12.303H0.483z"/>
	<path fill="none" stroke="#4688C7" stroke-width="0.9523" stroke-miterlimit="10" d="M-28.54,17.354
		c0.879,0.405,2.143,0.739,3.657,1.001v24.021c0,2.256,1.829,4.085,4.085,4.085c2.255,0,4.085-1.829,4.085-4.085v-23.32
		c1.22,0.028,2.456,0.028,3.677,0v23.32c0,2.256,1.829,4.085,4.085,4.085c2.255,0,4.085-1.829,4.085-4.085V18.355
		c1.513-0.263,2.777-0.596,3.656-1.001H-28.54z"/>
	
		<ellipse fill="none" stroke="#4688C7" stroke-width="0.9523" stroke-miterlimit="10" cx="-13.406" cy="-36.872" rx="9.192" ry="9.192"/>
	<path opacity="0.4" d="M20.146,21.179c-0.065-0.105-0.129-0.178-0.335-0.298c-0.365-0.227-1.202-0.365-1.625-0.365l-0.05,0.001
		c-0.088,0.001-0.125,0.001-0.146,0.002c-0.1,0.009-0.211,0.013-0.32,0.013c-0.843,0-1.646-0.254-2.324-0.726
		c-0.678,0.472-1.481,0.726-2.323,0.726c-0.109,0-0.221-0.004-0.331-0.013c-0.003,0-0.009,0-0.018,0c-0.018,0-0.047,0-0.083,0
		l-0.042-0.001c-0.289,0-0.874,0.054-1.299,0.204c-0.506,0.181-0.629,0.333-0.711,0.471c-0.054,0.094-0.216,0.379-0.219,1.195
		c-0.002,0.223,0.012,0.556,0.077,1.005h3.13v8.595c0.045,0.353,0.046,0.706,0,1.054v7.572c-5.178,0.243-9.158,1.696-9.158,3.454
		c0,1.929,21.379,1.929,21.379,0c0-1.758-3.98-3.211-9.158-3.454v-17.22h3.705c0.065-0.448,0.08-0.779,0.078-1
		C20.368,21.57,20.206,21.286,20.146,21.179z"/>
	<path fill="none" stroke="#4688C7" stroke-width="0.9523" stroke-miterlimit="10" d="M12.576,6.34h1.221l-0.252-0.167L13.186,5.66
		C13.02,5.919,12.814,6.148,12.576,6.34z"/>
	<path fill="none" stroke="#4688C7" stroke-width="0.9523" stroke-miterlimit="10" d="M9.93-4.456
		C9.862-4.463,9.795-4.476,9.725-4.476C8.974-4.466,8.314-4.31,7.54-4.086c-1.14,0.347-2.4,0.868-3.523,1.585
		C3.456-2.136,2.924-1.728,2.454-1.179h0C2.006-0.647,1.557,0.1,1.534,1.096c0,0.016-0.002,0.029-0.003,0.045
		c-0.011,0.838,0.381,1.669,0.9,2.215c0.789,0.835,1.764,1.302,3.046,1.737c1.286,0.422,2.913,0.768,5.028,1.054
		c0.093,0.012,0.185,0.018,0.275,0.018c1.007,0,1.883-0.744,2.022-1.77c0.15-1.118-0.634-2.146-1.751-2.297
		c-2.443-0.324-4.056-0.749-4.905-1.11L6.006,0.905l0.296-0.012c0.422-0.262,0.964-0.54,1.503-0.748
		c0.194-0.077,0.386-0.146,0.572-0.209L8.44,0.778C8.416,0.786,8.393,0.795,8.369,0.804h0c0.458,0.104,1.005,0.212,1.65,0.316
		L8.203-1.482l0.922-0.643l2.443,3.502c0.589,0.168,1.108,0.516,1.486,1.011c0.428,0.56,0.627,1.244,0.574,1.942l0.838,1.201
		L14.64,6.34h3.206c-0.55-0.447-0.937-1.092-1.036-1.835c-0.103-0.757,0.096-1.509,0.559-2.117c0.463-0.607,1.135-0.998,1.894-1.1
		c1.168-0.154,2.084-0.324,2.79-0.484l0.198,0.009l0.059-0.784c0.101,0.037,0.204,0.076,0.306,0.116
		c0.539,0.208,1.081,0.486,1.504,0.748c0.051,0.032,0.108,0.064,0.155,0.095c-0.85,0.361-2.463,0.787-4.905,1.11
		c-1.118,0.15-1.902,1.179-1.751,2.297c0.138,1.026,1.015,1.77,2.022,1.77c0.091,0,0.183-0.006,0.275-0.018
		c2.116-0.286,3.742-0.631,5.028-1.054c1.282-0.435,2.257-0.902,3.046-1.737c0.519-0.546,0.911-1.378,0.9-2.215
		c0-0.016-0.002-0.029-0.003-0.045c-0.022-0.997-0.472-1.744-0.92-2.275c-0.47-0.549-1.002-0.958-1.563-1.322
		c-1.123-0.717-2.383-1.239-3.523-1.585c-0.775-0.224-1.434-0.38-2.185-0.391c-0.024,0-0.045,0.006-0.069,0.007
		c-0.058-0.005-0.114-0.018-0.174-0.018h-8.74h-1.473C10.134-4.487,10.032-4.472,9.93-4.456z"/>
	<path fill="none" stroke="#4688C7" stroke-width="0.9523" stroke-miterlimit="10" d="M4.271,17.354
		c-0.023,0.038-0.049,0.074-0.071,0.112c-0.809,1.369-1.239,3.062-1.234,4.918c0.017,3.161,1.114,6.837,3.62,11.646
		c0.584,1.115,1.721,1.753,2.898,1.753c0.511,0,1.03-0.12,1.514-0.374c1.599-0.838,2.216-2.813,1.379-4.411
		c-2.24-4.252-2.891-7.091-2.873-8.614c0.005-0.91,0.183-1.343,0.334-1.609c0.221-0.373,0.549-0.612,1.143-0.825
		c0.569-0.2,1.286-0.256,1.613-0.25c0.078,0,0.134,0.003,0.161,0.004c0.002,0,0.004,0,0.005,0c1,0.081,1.933-0.299,2.59-0.963
		c0.655,0.664,1.589,1.044,2.589,0.963c0.022-0.001,0.077-0.004,0.165-0.004c0.441-0.018,1.553,0.121,2.124,0.476
		c0.298,0.175,0.473,0.337,0.631,0.599c0.152,0.266,0.329,0.699,0.335,1.609c0.016,1.523-0.634,4.362-2.873,8.614
		c-0.838,1.599-0.221,3.574,1.379,4.411c0.484,0.254,1.003,0.374,1.514,0.374c1.177,0,2.313-0.638,2.898-1.753
		c2.505-4.809,3.602-8.485,3.618-11.646c0.005-1.856-0.425-3.549-1.234-4.918c-0.023-0.04-0.051-0.074-0.074-0.112L4.271,17.354z"/>
	<polygon fill="none" stroke="#4688C7" stroke-width="0.9523" stroke-miterlimit="10" points="-30.81,45.868 -30.81,16.537 
		32.912,16.537 32.912,45.868 39.017,45.868 39.018,10.795 41.837,10.795 41.837,8.178 22.765,8.178 21.948,8.178 21.948,7.157 
		7.514,7.157 7.514,8.178 6.696,8.178 -39.736,8.178 -39.736,10.795 -36.916,10.795 -36.917,45.868 	"/>
	<circle fill="none" stroke="#4688C7" stroke-width="0.9523" stroke-miterlimit="10" cx="15.211" cy="-12.658" r="7.149"/>
</g>
</svg>
